<svg xmlns="http://www.w3.org/2000/svg" viewBox="0 0 735.41 800.13" width="735.41" height="800.13">
  <path d="M604.86,332.97l-29.97,9.85L574.89,299.69L602.07,299.69Z" fill="#ed9da0"/>
  <path d="M548.74,281.77a29.85,29.85 0,1 0,59.71 0a29.85,29.85 0,1 0,-59.71 0z" fill="#ed9da0"/>
  <path d="M586.2,284.11l-4.11,5L574.65,276.08s-9.5,0.5 -9.5,-6.57 -8.72,-7.24 -8.72,-7.24S544.08,240.72 569.65,246.4c0,0 17.73,-12.15 26.55,-1.76 0,0 27.03,13.61 19.29,37.32L602.64,306.39l-2.91,-5.53S601.49,277.64 586.2,284.11Z" fill="#090814"/>
  <path d="M588.97,741.57h24.12v34.22h-24.12z" fill="#ed9da0"/>
  <path d="M565.47,796.5c-2.53,0 -4.79,-0.06 -6.5,-0.22 -6.4,-0.59 -12.52,-5.32 -15.6,-8.09a4.37,4.37 0,0 1,-1.11 -4.93h0a4.33,4.33 0,0 1,2.82 -2.5l16.93,-4.84 27.41,-18.5 0.31,0.55a48.85,48.85 0,0 1,3.71 8.33,3.71 3.71,0 0,1 -0.26,3.09 2.95,2.95 0,0 1,-1.27 1.06c0.5,0.52 2.05,1.58 6.84,2.34 6.99,1.11 8.47,-6.14 8.52,-6.44l0.05,-0.24 0.21,-0.14c3.33,-2.14 5.38,-3.12 6.08,-2.91 0.44,0.13 1.17,0.36 3.17,20.09a20.28,20.28 0,0 1,0.64 9.5c-1.02,4.72 -21.67,3.1 -25.8,2.73 -0.12,0.01 -15.57,1.12 -26.16,1.12h0Z" fill="#090814"/>
  <path d="M645.59,705.64l18.6,-15.36l21.8,26.38l-18.6,15.36z" fill="#ed9da0"/>
  <path d="M662.51,762.9c-1.96,1.61 -3.73,3.01 -5.14,3.97 -5.31,3.63 -13.04,3.88 -17.16,3.71a4.38,4.38 0,0 1,-4 -3.1h0a4.37,4.37 0,0 1,0.58 -3.73l9.96,-14.52 9.33,-31.72 0.59,0.23a49.01,49.01 0,0 1,8.17 4.05,3.71 3.71,0 0,1 1.76,2.55 2.94,2.94 0,0 1,-0.3 1.64c0.71,0.08 2.58,-0.09 6.76,-2.56 6.09,-3.59 2.62,-10.13 2.45,-10.4l-0.12,-0.22 0.07,-0.23c1.2,-3.78 2.15,-5.83 2.83,-6.12 0.43,-0.18 1.13,-0.48 15.24,13.47a20.1,20.1 0,0 1,6.55 6.91c2.22,4.3 -14.72,16.21 -18.14,18.54 -0.08,0.08 -11.29,10.78 -19.44,17.53h0Z" fill="#090814"/>
  <path d="M549.08,477.68h82.74L613.43,751.15L585.85,751.15l-36.77,-273.48h0Z" fill="#090814"/>
  <path d="M565.93,492.74 L549.08,477.68l8.42,150.41 94.23,89.62 23.5,-19.41L620.32,627.06Z" fill="#090814"/>
  <path d="M574.82,323.79l28.97,-11.02L617.37,335.42c16.13,28.2 16.19,58.42 12.24,90.67l2.21,51.58L549.08,477.68Z" fill="#6c63ff"/>
  <path d="M482.46,490.61c-6.86,5.2 -9.62,13.04 -6.15,17.53s11.85,3.93 18.72,-1.27a20.68,20.68 0,0 0,6.47 -7.84l28.8,-22.37L518.98,462.98 491.78,486.49a21.18,21.18 0,0 0,-9.35 4.12h0.02Z" fill="#ed9da0"/>
  <path d="M493.92,479.9 L548.74,424.28 581.49,361.47a24.94,24.94 0,1 1,42.61 25.75l-47.1,67.73 -0.07,0.1 -72.06,42.43 -10.94,-17.6h-0.01Z" fill="#6c63ff"/>
  <path d="M0.01,798.31a1.67,1.67 0,0 0,1.47 1.81L733.94,800.13a1.85,1.85 0,0 0,0 -3.63L1.48,796.5A1.67,1.67 0,0 0,0.01 798.31Z" fill="#f2f2f2"/>
  <path d="M455.58,189.28h-4.38L451.2,69.39a69.39,69.39 0,0 0,-69.39 -69.39h-254a69.39,69.39 0,0 0,-69.39 69.39L58.42,727.11a69.39,69.39 0,0 0,69.39 69.39h254a69.39,69.39 0,0 0,69.39 -69.39L451.2,274.61h4.38Z" fill="#090814"/>
  <path d="M128,18.06L386,18.06A50,50 0,0 1,436 68.06L436,728.06A50,50 0,0 1,386 778.06L128,778.06A50,50 0,0 1,78 728.06L78,68.06A50,50 0,0 1,128 18.06z" fill="#fff"/>
  <path d="M219,26.06L295,26.06a16,16 0,0 1,0 32L219,58.06A16,16 0,0 1,219 26.06Z" fill="#090814"/>
  <path d="M106,90.06L146,90.06A4,4 0,0 1,150 94.06L150,134.06A4,4 0,0 1,146 138.06L106,138.06A4,4 0,0 1,102 134.06L102,94.06A4,4 0,0 1,106 90.06z" fill="#635bff"/>
  <path d="M124.24,108.83c0,-1.13 0.93,-1.58 2.47,-1.58a16.27,16.27 0,0 1,7.22 1.87L133.93,102.29A19.13,19.13 0,0 0,126.72 100.95c-5.91,0 -9.83,3.08 -9.83,8.23 0,8.02 11.06,6.75 11.06,10.21 0,1.34 -1.17,1.77 -2.79,1.77a18.11,18.11 0,0 1,-7.94 -2.32v6.92a20.11,20.11 0,0 0,7.94 1.66c6.05,0 10.21,-3 10.21,-8.2C135.32,110.55 124.24,112.09 124.24,108.83Z" fill-rule="evenodd" fill="#fff"/>
  <path d="M388,90.06A24,24 0,1 1,364 114.06,24 24,0 0,1 388,90.06Z" fill="#e6e6e6"/>
  <path d="M110,174.06L169,174.06a8,8 0,0 1,8 8v8a8,8 0,0 1,-8 8L110,198.06a8,8 0,0 1,-8 -8L102,182.06A8,8 0,0 1,110 174.06Z" fill="#6c63ff"/>
  <path d="M197,174.06L256,174.06a8,8 0,0 1,8 8v8a8,8 0,0 1,-8 8L197,198.06a8,8 0,0 1,-8 -8L189,182.06A8,8 0,0 1,197 174.06Z" fill="#e6e6e6"/>
  <path d="M284,174.06L343,174.06a8,8 0,0 1,8 8v8a8,8 0,0 1,-8 8L284,198.06a8,8 0,0 1,-8 -8L276,182.06A8,8 0,0 1,284 174.06Z" fill="#e6e6e6"/>
  <path d="M371,174.06L436,174.06L436,198.06L371,198.06a8,8 0,0 1,-8 -8L363,182.06A8,8 0,0 1,371 174.06Z" fill="#e6e6e6"/>
  <path d="M110,246.06L134,246.06a8,8 0,0 1,8 8L142,278.06a8,8 0,0 1,-8 8L110,286.06a8,8 0,0 1,-8 -8L102,254.06A8,8 0,0 1,110 246.06Z" fill="#6c63ff"/>
  <path d="M119.38,276.06a2.14,2.14 0,0 1,-1.71 -0.86l-5.24,-6.99a2.14,2.14 0,1 1,3.42 -2.57l3.43,4.57 8.81,-13.21a2.14,2.14 0,0 1,3.56 2.37l-10.48,15.73a2.14,2.14 0,0 1,-1.72 0.95Z" fill="#fff"/>
  <path d="M395.24,280.06L395.24,277.34a8.28,8.28 0,0 1,-5.2 -1.95,6.49 6.49,0 0,1 -2.04,-4.81L391.69,270.59a3.26,3.26 0,0 0,1.11 2.37,4.56 4.56,0 0,0 2.45,1.02v-6.51l-1.12,-0.31a9.13,9.13 0,0 1,-4.08 -2.13,5.01 5.01,0 0,1 -1.46,-3.75A5.89,5.89 0,0 1,389.43 258.08,6.39 6.39,0 0,1 391.8,255.86 8.59,8.59 0,0 1,395.24 254.84L395.24,252.06h1.68v2.77a8.29,8.29 0,0 1,3.54 0.97,6.38 6.38,0 0,1 2.36,2.21 6,6 0,0 1,0.9 3.09L400.09,261.1a2.96,2.96 0,0 0,-0.97 -1.99,3.98 3.98,0 0,0 -2.2,-0.93v6.14l0.94,0.25a13.53,13.53 0,0 1,2.95 1.14,6.49 6.49,0 0,1 2.3,2 5.33,5.33 0,0 1,0.89 3.16,5.93 5.93,0 0,1 -1.86,4.49 8.02,8.02 0,0 1,-5.22 1.97v2.72ZM396.92,273.96a4.28,4.28 0,0 0,2.42 -1.03,2.7 2.7,0 0,0 0.92,-2.08 2.12,2.12 0,0 0,-0.91 -1.85,7.99 7.99,0 0,0 -2.42,-1.07ZM395.24,263.87v-5.67a3.68,3.68 0,0 0,-2.12 0.97,2.53 2.53,0 0,0 -0.76,1.85 2.14,2.14 0,0 0,0.89 1.85,7.07 7.07,0 0,0 2,1Z" fill="#090814"/>
  <path d="M169,254.06L346,254.06a8,8 0,0 1,8 8v8a8,8 0,0 1,-8 8L169,278.06a8,8 0,0 1,-8 -8L161,262.06A8,8 0,0 1,169 254.06Z" fill="#e6e6e6"/>
  <path d="M169,294.06L228,294.06a8,8 0,0 1,8 8v8a8,8 0,0 1,-8 8L169,318.06a8,8 0,0 1,-8 -8L161,302.06A8,8 0,0 1,169 294.06Z" fill="#e6e6e6"/>
  <path d="M412,342.56L102,342.56v-1L412,341.56Z" fill="#e6e6e6"/>
  <path d="M110,366.56L134,366.56a8,8 0,0 1,8 8L142,398.56a8,8 0,0 1,-8 8L110,406.56a8,8 0,0 1,-8 -8L102,374.56A8,8 0,0 1,110 366.56Z" fill="#6c63ff"/>
  <path d="M119.38,396.56a2.14,2.14 0,0 1,-1.71 -0.86l-5.24,-6.99a2.14,2.14 0,1 1,3.42 -2.57l3.43,4.57 8.81,-13.21a2.14,2.14 0,0 1,3.56 2.37l-10.48,15.73a2.14,2.14 0,0 1,-1.72 0.95Z" fill="#fff"/>
  <path d="M395.24,400.56L395.24,397.84a8.28,8.28 0,0 1,-5.2 -1.95,6.49 6.49,0 0,1 -2.04,-4.81L391.69,391.09a3.26,3.26 0,0 0,1.11 2.37,4.56 4.56,0 0,0 2.45,1.02v-6.51l-1.12,-0.31a9.13,9.13 0,0 1,-4.08 -2.13,5.01 5.01,0 0,1 -1.46,-3.75A5.89,5.89 0,0 1,389.43 378.58,6.39 6.39,0 0,1 391.8,376.36 8.59,8.59 0,0 1,395.24 375.34L395.24,372.56h1.68v2.77a8.29,8.29 0,0 1,3.54 0.97,6.38 6.38,0 0,1 2.36,2.21 6,6 0,0 1,0.9 3.09L400.09,381.6a2.96,2.96 0,0 0,-0.97 -1.99,3.98 3.98,0 0,0 -2.2,-0.93v6.14l0.94,0.25a13.53,13.53 0,0 1,2.95 1.14,6.49 6.49,0 0,1 2.3,2 5.33,5.33 0,0 1,0.89 3.16,5.93 5.93,0 0,1 -1.86,4.49 8.02,8.02 0,0 1,-5.22 1.97v2.72ZM396.92,394.46a4.28,4.28 0,0 0,2.42 -1.03,2.7 2.7,0 0,0 0.92,-2.08 2.12,2.12 0,0 0,-0.91 -1.85,7.99 7.99,0 0,0 -2.42,-1.07ZM395.24,384.37v-5.67a3.68,3.68 0,0 0,-2.12 0.97,2.53 2.53,0 0,0 -0.76,1.85 2.14,2.14 0,0 0,0.89 1.85,7.07 7.07,0 0,0 2,1Z" fill="#090814"/>
  <path d="M169,374.56L346,374.56a8,8 0,0 1,8 8v8a8,8 0,0 1,-8 8L169,398.56a8,8 0,0 1,-8 -8L161,382.56A8,8 0,0 1,169 374.56Z" fill="#e6e6e6"/>
  <path d="M169,414.56L228,414.56a8,8 0,0 1,8 8v8a8,8 0,0 1,-8 8L169,438.56a8,8 0,0 1,-8 -8L161,422.56A8,8 0,0 1,169 414.56Z" fill="#e6e6e6"/>
  <path d="M412,463.06L102,463.06v-1L412,462.06Z" fill="#e6e6e6"/>
  <path d="M110,487.06L134,487.06a8,8 0,0 1,8 8L142,519.06a8,8 0,0 1,-8 8L110,527.06a8,8 0,0 1,-8 -8L102,495.06A8,8 0,0 1,110 487.06Z" fill="#6c63ff"/>
  <path d="M119.38,517.06a2.14,2.14 0,0 1,-1.71 -0.86l-5.24,-6.99a2.14,2.14 0,1 1,3.42 -2.57l3.43,4.57 8.81,-13.21a2.14,2.14 0,0 1,3.56 2.37l-10.48,15.73a2.14,2.14 0,0 1,-1.72 0.95Z" fill="#fff"/>
  <path d="M395.24,521.06L395.24,518.34a8.28,8.28 0,0 1,-5.2 -1.95,6.49 6.49,0 0,1 -2.04,-4.81L391.69,511.58a3.26,3.26 0,0 0,1.11 2.37,4.56 4.56,0 0,0 2.45,1.02v-6.51l-1.12,-0.31a9.13,9.13 0,0 1,-4.08 -2.13,5.01 5.01,0 0,1 -1.46,-3.75A5.89,5.89 0,0 1,389.43 499.08,6.39 6.39,0 0,1 391.8,496.86 8.59,8.59 0,0 1,395.24 495.84L395.24,493.06h1.68v2.77a8.29,8.29 0,0 1,3.54 0.97,6.38 6.38,0 0,1 2.36,2.21 6,6 0,0 1,0.9 3.09L400.09,502.1a2.96,2.96 0,0 0,-0.97 -1.99,3.98 3.98,0 0,0 -2.2,-0.93v6.14l0.94,0.25a13.53,13.53 0,0 1,2.95 1.14,6.49 6.49,0 0,1 2.3,2 5.33,5.33 0,0 1,0.89 3.16,5.93 5.93,0 0,1 -1.86,4.49 8.02,8.02 0,0 1,-5.22 1.97v2.72ZM396.92,514.96a4.28,4.28 0,0 0,2.42 -1.03,2.7 2.7,0 0,0 0.92,-2.08 2.12,2.12 0,0 0,-0.91 -1.85,7.99 7.99,0 0,0 -2.42,-1.07ZM395.24,504.87v-5.67a3.68,3.68 0,0 0,-2.12 0.97,2.53 2.53,0 0,0 -0.76,1.85 2.14,2.14 0,0 0,0.89 1.85,7.07 7.07,0 0,0 2,1Z" fill="#090814"/>
  <path d="M169,495.06L346,495.06a8,8 0,0 1,8 8v8a8,8 0,0 1,-8 8L169,519.06a8,8 0,0 1,-8 -8L161,503.06A8,8 0,0 1,169 495.06Z" fill="#e6e6e6"/>
  <path d="M169,535.06L228,535.06a8,8 0,0 1,8 8v8a8,8 0,0 1,-8 8L169,559.06a8,8 0,0 1,-8 -8L161,543.06A8,8 0,0 1,169 535.06Z" fill="#e6e6e6"/>
  <path d="M412,583.56L102,583.56v-1L412,582.56Z" fill="#e6e6e6"/>
  <path d="M110,611.06L404,611.06a8,8 0,0 1,8 8L412,731.06a8,8 0,0 1,-8 8L110,739.06a8,8 0,0 1,-8 -8L102,619.06A8,8 0,0 1,110 611.06Z" fill="#f2f2f2"/>
  <path d="M365.6,636.82m-5.26,0a5.26,5.26 0,1 1,10.52 0a5.26,5.26 0,1 1,-10.52 0" fill="#090814"/>
  <path d="M365.03,636.82l0.62,0.62L334.22,668.88 324.36,659.01 307.04,676.33l-21.26,-21.26L249.62,691.23 233.18,674.79 197.23,710.74 177.07,690.58l-36.95,36.95 -0.62,-0.62 37.57,-37.57 20.17,20.17 35.94,-35.94 16.44,16.44 36.16,-36.16 21.26,21.26 17.32,-17.32 9.86,9.86Z" fill="#090814"/>
  <path d="M284.25,655.11m-5.26,0a5.26,5.26 0,1 1,10.52 0a5.26,5.26 0,1 1,-10.52 0" fill="#090814"/>
  <path d="M177.29,689.74m-5.26,0a5.26,5.26 0,1 1,10.52 0a5.26,5.26 0,1 1,-10.52 0" fill="#090814"/>
</svg>
